<?xml version="1.0" standalone="no"?>
<!DOCTYPE svg PUBLIC "-//W3C//DTD SVG 20010904//EN"
 "http://www.w3.org/TR/2001/REC-SVG-20010904/DTD/svg10.dtd">
<svg version="1.0" xmlns="http://www.w3.org/2000/svg"
 width="548.000000pt" height="548.000000pt" viewBox="0 0 548.000000 548.000000"
 preserveAspectRatio="xMidYMid meet">
<metadata>
Created by potrace 1.14, written by Peter Selinger 2001-2017
</metadata>
<g transform="translate(0.000000,548.000000) scale(0.100000,-0.100000)"
fill="#000000" stroke="none">
<path d="M1730 4675 c0 -5 -26 -23 -58 -40 -31 -16 -59 -32 -62 -35 -3 -3 -32
-23 -64 -44 -33 -21 -64 -42 -70 -47 -6 -5 -36 -28 -68 -53 -31 -25 -59 -42
-64 -38 -4 4 -4 2 -1 -4 4 -7 -3 -18 -16 -27 -30 -19 -172 -165 -170 -174 1
-4 19 -13 40 -21 65 -23 380 -115 433 -127 8 -2 65 -14 125 -28 61 -14 130
-28 155 -33 25 -4 47 -8 50 -9 19 -5 134 -23 181 -29 224 -29 364 -39 569 -39
254 0 438 14 695 54 39 6 79 13 90 15 11 3 36 7 55 10 19 3 63 12 98 20 34 7
77 16 95 19 17 3 68 15 112 26 44 12 89 23 100 25 65 13 375 108 373 115 -5
14 -149 159 -158 159 -5 0 -14 8 -19 18 -5 10 -21 24 -36 32 -15 8 -24 19 -20
27 2 8 0 11 -5 8 -9 -6 -91 50 -98 68 -2 4 -8 7 -13 7 -5 0 -32 16 -60 36 -28
19 -67 45 -87 56 -85 49 -83 48 -152 32 -110 -26 -303 -64 -350 -70 -25 -2
-52 -7 -60 -9 -13 -4 -41 -8 -155 -21 -221 -25 -600 -24 -800 2 -111 14 -261
38 -333 53 -135 27 -238 55 -244 65 -4 6 -8 7 -8 1z"/>
<path d="M960 3971 c-22 -33 -40 -65 -40 -70 0 -6 -3 -11 -7 -11 -5 0 -13 -10
-19 -23 -17 -35 -49 -92 -54 -97 -11 -11 -62 -128 -96 -218 l-24 -62 22 -9
c454 -170 786 -272 1098 -335 156 -31 174 -34 230 -42 25 -3 52 -7 61 -10 9
-2 41 -7 70 -9 30 -3 70 -7 89 -10 187 -25 668 -25 853 0 17 2 55 6 82 9 63 7
196 25 227 32 13 2 39 7 58 10 32 5 224 45 310 64 93 20 320 83 450 125 80 25
156 48 169 51 14 3 29 8 35 12 6 3 16 7 21 8 13 3 259 87 263 90 4 2 -12 60
-25 94 -4 8 -7 17 -8 20 0 3 -17 38 -38 79 -20 41 -37 78 -37 82 0 5 -11 25
-25 45 -14 20 -23 39 -21 42 3 2 -3 13 -13 23 -10 11 -24 32 -32 47 -8 15 -20
33 -26 40 -7 7 -13 16 -13 20 -1 4 -9 17 -20 30 l-19 23 -213 -70 c-117 -38
-236 -76 -265 -85 -76 -23 -441 -114 -487 -120 -21 -4 -41 -8 -45 -10 -3 -2
-28 -7 -56 -10 -27 -4 -57 -9 -65 -11 -18 -5 -78 -14 -140 -21 -25 -3 -58 -7
-75 -9 -214 -28 -644 -27 -843 0 -387 54 -763 151 -1178 305 -59 22 -108 40
-110 40 -2 0 -21 -27 -44 -59z"/>
<path d="M2449 2426 c-2 -2 -38 -7 -79 -10 -41 -4 -109 -11 -150 -16 -41 -5
-97 -12 -125 -15 -27 -4 -68 -10 -90 -15 -22 -5 -56 -11 -75 -15 -252 -41
-583 -135 -998 -283 -210 -75 -197 -59 -139 -180 17 -37 32 -73 33 -80 2 -8
10 -22 20 -33 9 -10 13 -19 8 -19 -5 0 -4 -4 2 -8 6 -4 21 -25 33 -47 24 -45
43 -77 51 -85 3 -3 10 -13 15 -22 49 -81 89 -129 104 -124 9 2 114 39 234 80
539 187 981 270 1432 269 105 0 326 -11 363 -18 9 -1 44 -6 77 -9 33 -4 71 -9
85 -11 14 -3 41 -7 60 -10 301 -47 596 -122 952 -240 144 -47 171 -54 188 -43
11 7 20 15 20 18 0 4 29 50 65 105 36 54 65 102 65 107 0 5 5 6 12 2 6 -4 8
-3 5 3 -7 11 14 63 26 63 4 0 7 7 7 16 0 8 4 13 8 10 4 -2 8 3 9 12 0 9 17 54
36 99 33 75 35 84 19 92 -46 24 -496 168 -672 216 -90 24 -350 86 -415 99 -16
4 -41 9 -55 11 -69 15 -334 54 -400 60 -41 4 -86 9 -100 12 -27 6 -625 14
-631 9z"/>
<path d="M2508 1555 c-2 -2 -46 -6 -98 -9 -52 -4 -108 -9 -125 -10 -59 -6
-143 -17 -161 -20 -11 -2 -41 -7 -69 -10 -42 -6 -106 -18 -275 -52 -85 -17
-389 -100 -522 -142 l-58 -18 58 -56 c100 -98 141 -136 145 -132 2 2 18 -10
36 -26 18 -17 34 -30 37 -30 10 0 83 -58 79 -62 -3 -3 1 -5 7 -5 7 0 48 -21
91 -47 43 -25 81 -46 86 -46 5 0 14 -7 21 -15 7 -9 15 -13 18 -11 3 3 17 -3
33 -14 15 -11 29 -17 31 -12 7 18 360 81 563 100 160 14 726 5 755 -13 3 -2
31 -6 61 -9 29 -3 65 -8 79 -11 13 -2 42 -7 65 -11 22 -3 92 -16 156 -29 114
-23 149 -24 179 -1 8 7 33 21 54 31 46 23 159 91 199 120 87 63 149 112 206
163 35 31 68 56 73 54 5 -1 7 2 4 6 -3 5 3 17 14 27 11 10 20 21 20 26 0 10
-146 53 -370 110 -196 50 -497 107 -658 124 -26 3 -67 8 -92 11 -25 3 -70 8
-100 10 -60 5 -538 13 -542 9z"/>
<path d="M4076 1007 c3 -10 9 -15 12 -12 3 3 0 11 -7 18 -10 9 -11 8 -5 -6z"/>
</g>
</svg>
